<svg width="814" height="403" viewBox="0 0 814 403" fill="none" xmlns="http://www.w3.org/2000/svg">
<g id="Dark-mode">
<g id="moon">
<path id="Vector" d="M673.074 365.377C651.284 365.396 629.668 361.495 609.259 353.86C608.092 353.423 607.022 352.76 606.111 351.908C605.199 351.057 604.465 350.035 603.948 348.9C603.432 347.765 603.145 346.54 603.102 345.293C603.06 344.047 603.263 342.805 603.7 341.637C604.138 340.47 604.801 339.4 605.652 338.489C606.503 337.577 607.526 336.843 608.661 336.326C609.796 335.81 611.021 335.523 612.267 335.48C613.514 335.438 614.756 335.641 615.923 336.078C642.981 346.079 672.179 348.848 700.634 344.113C729.089 339.378 755.817 327.302 778.177 309.078C708.425 309.82 640.196 276.855 606.252 223.96C584.43 189.957 577.296 149.946 585.614 108.249C591.983 78.0127 605.059 49.5917 623.876 25.0822C587.948 36.5142 557.027 59.924 536.277 91.4037C515.526 122.883 506.202 160.528 509.859 198.054C509.986 199.297 509.867 200.553 509.508 201.75C509.149 202.947 508.558 204.061 507.767 205.029C506.976 205.997 506.003 206.799 504.901 207.39C503.8 207.981 502.593 208.348 501.35 208.471C500.106 208.595 498.851 208.471 497.655 208.108C496.459 207.745 495.347 207.15 494.382 206.356C493.417 205.562 492.618 204.586 492.031 203.482C491.444 202.379 491.08 201.171 490.961 199.927C486.349 152.715 500.177 105.548 529.552 68.3001C558.926 31.0521 601.57 6.61026 648.557 0.0906829C650.522 -0.182803 652.523 0.165924 654.279 1.08784C656.035 2.00975 657.459 3.45856 658.349 5.23086C659.24 7.00316 659.553 9.0099 659.245 10.9693C658.937 12.9287 658.022 14.7424 656.631 16.1557C608.066 65.485 578.595 145.699 622.232 213.705C656.662 267.35 730.741 298.034 802.416 288.336C804.339 288.076 806.295 288.411 808.022 289.296C809.748 290.182 811.162 291.575 812.073 293.288C812.984 295.001 813.348 296.952 813.116 298.879C812.885 300.805 812.068 302.614 810.777 304.063C793.422 323.386 772.188 338.833 748.461 349.398C724.735 359.963 699.047 365.408 673.074 365.377V365.377Z" fill="#1F28CF"/>
<path id="Vector_2" d="M521.632 369.149C507.86 369.149 494.397 365.065 482.947 357.414C471.496 349.762 462.571 338.887 457.301 326.164C452.03 313.44 450.651 299.439 453.338 285.932C456.025 272.425 462.657 260.018 472.395 250.28C482.133 240.541 494.54 233.91 508.047 231.223C521.555 228.536 535.555 229.915 548.279 235.185C561.003 240.455 571.878 249.38 579.529 260.831C587.18 272.282 591.264 285.745 591.264 299.517C591.243 317.978 583.9 335.677 570.846 348.731C557.792 361.785 540.093 369.128 521.632 369.149V369.149ZM521.632 248.875C511.616 248.875 501.825 251.845 493.497 257.41C485.169 262.975 478.678 270.884 474.845 280.137C471.013 289.391 470.01 299.573 471.964 309.396C473.918 319.22 478.741 328.243 485.823 335.326C492.905 342.408 501.929 347.231 511.752 349.185C521.576 351.139 531.758 350.136 541.012 346.303C550.265 342.47 558.174 335.98 563.739 327.652C569.303 319.324 572.273 309.533 572.273 299.517C572.258 286.09 566.918 273.219 557.424 263.725C547.93 254.231 535.058 248.891 521.632 248.875V248.875Z" fill="#1F28CF"/>
</g>
<g id="sun">
<path id="Vector_3" d="M191.171 88.7514C187.55 88.7514 184.078 87.3128 181.517 84.7523C178.956 82.1918 177.518 78.719 177.518 75.0978V34.1368C177.523 30.5193 178.964 27.0517 181.524 24.4956C184.084 21.9396 187.554 20.5039 191.172 20.5039C194.789 20.5039 198.259 21.9396 200.819 24.4956C203.379 27.0517 204.82 30.5193 204.825 34.1368V75.0978C204.825 76.8908 204.472 78.6663 203.786 80.3228C203.1 81.9794 202.094 83.4846 200.826 84.7524C199.558 86.0203 198.053 87.026 196.396 87.7121C194.74 88.3983 192.964 88.7514 191.171 88.7514V88.7514Z" fill="#FCFF5F"/>
<path id="Vector_4" d="M191.171 402.787C189.378 402.787 187.603 402.434 185.946 401.748C184.29 401.062 182.785 400.056 181.517 398.788C180.249 397.52 179.243 396.015 178.557 394.359C177.871 392.702 177.518 390.927 177.518 389.133V348.173C177.515 346.378 177.866 344.6 178.551 342.941C179.236 341.282 180.241 339.775 181.509 338.504C182.778 337.234 184.284 336.227 185.942 335.539C187.6 334.852 189.377 334.498 191.171 334.498C192.966 334.498 194.743 334.852 196.401 335.539C198.059 336.227 199.565 337.234 200.833 338.504C202.102 339.775 203.107 341.282 203.792 342.941C204.477 344.6 204.828 346.378 204.825 348.173V389.133C204.825 390.927 204.472 392.702 203.786 394.359C203.1 396.015 202.094 397.52 200.826 398.788C199.558 400.056 198.053 401.062 196.397 401.748C194.74 402.434 192.964 402.787 191.171 402.787V402.787Z" fill="#FCFF5F"/>
<path id="Vector_5" d="M287.72 128.741C285.02 128.741 282.38 127.94 280.135 126.44C277.889 124.939 276.14 122.807 275.106 120.312C274.073 117.817 273.802 115.072 274.329 112.424C274.856 109.775 276.156 107.342 278.066 105.433L307.029 76.4698C309.59 73.9118 313.062 72.4754 316.682 72.4766C320.302 72.4777 323.773 73.9162 326.333 76.4759C328.892 79.0355 330.331 82.5068 330.332 86.1266C330.333 89.7464 328.896 93.2184 326.338 95.7794L297.375 124.742C296.108 126.012 294.603 127.019 292.946 127.705C291.29 128.391 289.514 128.743 287.72 128.741V128.741Z" fill="#FCFF5F"/>
<path id="Vector_6" d="M65.6603 350.8C62.9599 350.8 60.3201 349.999 58.0749 348.499C55.8296 346.998 54.0797 344.866 53.0463 342.371C52.0129 339.876 51.7424 337.131 52.2691 334.483C52.7958 331.834 54.0961 329.401 56.0054 327.492L84.9682 298.529C87.5287 295.968 91.0016 294.529 94.6228 294.529C98.244 294.529 101.717 295.968 104.278 298.528C106.838 301.089 108.277 304.562 108.277 308.183C108.277 311.804 106.838 315.277 104.278 317.838L75.3151 346.801C74.0485 348.07 72.5436 349.077 70.8867 349.764C69.2298 350.45 67.4537 350.802 65.6603 350.8V350.8Z" fill="#FCFF5F"/>
<path id="Vector_7" d="M368.669 225.29H327.708C324.091 225.284 320.623 223.843 318.067 221.283C315.511 218.723 314.075 215.254 314.075 211.636C314.075 208.019 315.511 204.549 318.067 201.989C320.623 199.429 324.091 197.988 327.708 197.982H368.669C370.464 197.98 372.242 198.331 373.901 199.016C375.56 199.701 377.067 200.706 378.337 201.974C379.607 203.242 380.615 204.748 381.303 206.406C381.99 208.064 382.344 209.841 382.344 211.636C382.344 213.431 381.99 215.208 381.303 216.866C380.615 218.524 379.607 220.03 378.337 221.298C377.067 222.566 375.56 223.571 373.901 224.256C372.242 224.941 370.464 225.293 368.669 225.29V225.29Z" fill="#FCFF5F"/>
<path id="Vector_8" d="M54.6353 225.29H13.6745C11.8797 225.293 10.1019 224.941 8.443 224.256C6.78406 223.571 5.27646 222.566 4.00639 221.298C2.73633 220.03 1.72871 218.524 1.04125 216.866C0.353787 215.208 0 213.431 0 211.636C0 209.841 0.353787 208.064 1.04125 206.406C1.72871 204.748 2.73633 203.242 4.00639 201.974C5.27646 200.706 6.78406 199.701 8.443 199.016C10.1019 198.331 11.8797 197.98 13.6745 197.982H54.6354C58.253 197.988 61.7206 199.429 64.2767 201.989C66.8327 204.549 68.2684 208.019 68.2684 211.636C68.2684 215.254 66.8327 218.723 64.2767 221.283C61.7206 223.843 58.253 225.284 54.6354 225.29H54.6353Z" fill="#FCFF5F"/>
<path id="Vector_9" d="M316.683 350.8C314.89 350.803 313.114 350.451 311.457 349.764C309.8 349.078 308.295 348.071 307.029 346.801L278.066 317.838C276.796 316.571 275.788 315.065 275.1 313.408C274.412 311.751 274.057 309.975 274.056 308.181C274.055 306.386 274.408 304.609 275.094 302.952C275.78 301.294 276.786 299.787 278.055 298.519C279.324 297.25 280.83 296.244 282.488 295.557C284.146 294.871 285.923 294.519 287.717 294.52C289.511 294.521 291.288 294.875 292.945 295.563C294.602 296.251 296.107 297.259 297.374 298.529L326.338 327.492C328.247 329.402 329.547 331.835 330.074 334.483C330.601 337.132 330.331 339.877 329.297 342.372C328.264 344.867 326.514 346.999 324.269 348.499C322.023 350 319.384 350.801 316.683 350.801V350.8Z" fill="#FCFF5F"/>
<path id="Vector_10" d="M94.6228 128.741C92.8295 128.744 91.0533 128.391 89.3965 127.705C87.7397 127.019 86.2349 126.012 84.9685 124.742L56.0053 95.7795C54.7374 94.5116 53.7316 93.0064 53.0454 91.3498C52.3592 89.6932 52.0061 87.9177 52.0061 86.1246C52.0061 84.3316 52.3592 82.5561 53.0454 80.8995C53.7316 79.2429 54.7374 77.7377 56.0053 76.4699C57.2731 75.202 58.7783 74.1962 60.4349 73.51C62.0915 72.8238 63.867 72.4707 65.6601 72.4707C67.4532 72.4707 69.2286 72.8238 70.8852 73.51C72.5417 74.1962 74.047 75.202 75.3149 76.4699L104.277 105.433C106.187 107.343 107.487 109.775 108.014 112.424C108.541 115.072 108.27 117.818 107.237 120.312C106.203 122.807 104.453 124.94 102.208 126.44C99.963 127.94 97.3232 128.741 94.6228 128.741V128.741Z" fill="#FCFF5F"/>
<path id="Vector_11" d="M191.172 293.557C174.969 293.557 159.13 288.752 145.658 279.751C132.186 270.749 121.686 257.954 115.486 242.985C109.285 228.016 107.663 211.544 110.824 195.653C113.985 179.761 121.787 165.164 133.244 153.707C144.701 142.25 159.298 134.448 175.19 131.287C191.081 128.126 207.553 129.748 222.522 135.949C237.491 142.149 250.286 152.649 259.287 166.121C268.289 179.593 273.094 195.432 273.094 211.635C273.069 233.354 264.43 254.177 249.072 269.535C233.714 284.893 212.891 293.532 191.172 293.557V293.557ZM191.172 157.02C180.37 157.02 169.811 160.223 160.829 166.224C151.848 172.226 144.848 180.755 140.714 190.735C136.581 200.714 135.499 211.695 137.607 222.29C139.714 232.884 144.915 242.615 152.553 250.253C160.191 257.891 169.923 263.093 180.517 265.2C191.111 267.307 202.092 266.226 212.072 262.092C222.051 257.959 230.581 250.958 236.582 241.977C242.583 232.996 245.786 222.437 245.786 211.635C245.77 197.155 240.011 183.273 229.772 173.035C219.533 162.796 205.651 157.037 191.172 157.02V157.02Z" fill="#FCFF5F"/>
</g>
</g>
</svg>
