<svg width="1905" height="1495" viewBox="0 0 1905 1495" fill="none" xmlns="http://www.w3.org/2000/svg">
<path fill-rule="evenodd" clip-rule="evenodd" d="M0.633707 931.71C27.7429 644.446 1482.27 89.9962 1752.29 362.087C2022.32 634.178 1953.97 1206.49 1388.09 1337.25C822.217 1468.01 -26.4755 1218.97 0.633707 931.71Z" fill="#FAF2FB"/>
<path fill-rule="evenodd" clip-rule="evenodd" d="M878.876 773.172C884.316 847.498 1234.73 1066.32 1236.77 1072.46C1238.14 1076.56 1127.7 1331.24 1127.7 1331.24L1158.34 1343.16C1158.34 1343.16 1327.72 1073.43 1319.02 1044.69C1306.57 1003.54 1047.14 773.962 1047.14 773.962L878.876 773.172Z" fill="#B28B67"/>
<path fill-rule="evenodd" clip-rule="evenodd" d="M1135.76 1292.89L1185.78 1311.12C1291.23 1192 1332.57 1093.71 1325.03 1043.63C1317.49 993.549 1054.08 773.354 1054.08 773.354L875.29 773.354C881.39 945.482 1206.18 1073.12 1210.53 1080.45C1214.87 1087.79 1172.12 1159.63 1135.76 1292.89Z" fill="#11153A"/>
<path fill-rule="evenodd" clip-rule="evenodd" d="M1122.32 1321.99C1121.5 1321.15 1120.15 1321.16 1119.38 1322.04C1115.87 1326.05 1106.98 1336.56 1104.76 1342.68C1101.97 1350.35 1099.17 1366.01 1099.17 1366.01C1108.06 1369.25 1259.05 1424.27 1259.05 1424.27C1259.05 1424.27 1272.79 1405.92 1259.96 1399.38C1247.13 1392.84 1238.73 1388.28 1238.73 1388.28L1174.98 1326.59C1174.58 1326.2 1173.93 1326.22 1173.55 1326.63L1163.15 1338.03C1163.15 1338.03 1148.61 1339.3 1140.84 1336.47C1134.72 1334.24 1125.83 1325.57 1122.32 1321.99Z" fill="#E4E4E4"/>
<path fill-rule="evenodd" clip-rule="evenodd" d="M919.167 773.172L763.066 1148.36L609.644 1465.55H645.841L1041.87 773.172H919.167Z" fill="#997659"/>
<path fill-rule="evenodd" clip-rule="evenodd" d="M611.854 1445.7C610.798 1445.19 609.53 1445.66 609.106 1446.76C607.176 1451.73 602.417 1464.65 602.417 1471.16C602.417 1479.33 605.135 1495 605.135 1495C614.601 1495 775.281 1495 775.281 1495C775.281 1495 781.913 1473.05 767.624 1471.3C753.335 1469.55 743.883 1468.14 743.883 1468.14L662.907 1432C662.392 1431.77 661.789 1432.01 661.575 1432.53L655.701 1446.79C655.701 1446.79 642.473 1452.97 634.202 1452.97C627.692 1452.97 616.376 1447.87 611.854 1445.7Z" fill="#E4E4E4"/>
<path fill-rule="evenodd" clip-rule="evenodd" d="M623.499 1399.66L703.929 1414.76C766.118 1323.23 1026.38 947.896 1054.92 773.172H875.86C780.565 899.48 682.778 1306.61 623.499 1399.66Z" fill="#1D2338"/>
<path fill-rule="evenodd" clip-rule="evenodd" d="M1044.99 348.018C1075.3 366.267 1105.07 375.084 1119.05 371.485C1154.1 362.459 1157.33 234.36 1130.21 183.859C1103.08 133.358 963.658 111.347 956.631 211.405C954.191 246.132 968.788 277.123 990.354 302.412L951.684 482.465H1064.01L1044.99 348.018Z" fill="#DEAF82"/>
<path fill-rule="evenodd" clip-rule="evenodd" d="M1047.59 223.223C1057.3 208.77 1066.63 197.747 1078.76 191.345C1128.15 192.125 1133.93 183.281 1133.93 153.474C1125.95 147.772 1097.81 138.172 1066.29 135.471C1050.22 130.875 1031.17 131.739 1012.82 139.406C990.173 145.826 970.995 159.651 962.524 185.535C931.876 238.371 955.138 293.373 986.486 312.161C994.831 302.285 1002.11 292.714 1008.61 283.552C1003.39 278.458 1000.15 271.349 1000.15 263.484C1000.15 247.99 1012.72 235.431 1028.23 235.431C1029.37 235.431 1030.5 235.499 1031.6 235.631C1032.3 255.002 1035.17 320.537 1042.72 343.301C1051.61 370.139 1103.51 376.729 1121.61 376.729C1137.24 376.729 1136.71 361.939 1136.33 351.34C1136.27 349.814 1136.22 348.374 1136.22 347.078C1136.22 344.37 1132.7 344.377 1128.71 344.385C1123.54 344.395 1117.6 344.407 1117.6 338.479C1117.6 332.017 1126.54 327.06 1134.54 322.624C1139.53 319.857 1144.15 317.292 1146.01 314.692C1151.88 306.488 1153.85 295.422 1145 295.422C1140.17 295.422 1133.53 298.209 1125.54 301.561C1113.48 306.622 1098.36 312.972 1081.71 312.972C1054.21 312.972 1047.67 224.34 1047.59 223.223Z" fill="#270D0D"/>
<path fill-rule="evenodd" clip-rule="evenodd" d="M964.417 226.515C981.077 226.515 994.583 212.993 994.583 196.313C994.583 179.633 981.077 166.111 964.417 166.111C947.756 166.111 934.25 179.633 934.25 196.313C934.25 212.993 947.756 226.515 964.417 226.515Z" fill="#101030"/>
<path fill-rule="evenodd" clip-rule="evenodd" d="M986.925 219.698C971.107 235.07 955.049 250.677 932.623 250.677C887.755 250.677 869.936 160.071 932.623 160.071C989.181 160.071 1007.61 171.023 1031.74 185.355C1034.35 186.908 1037.03 188.501 1039.83 190.124C1018.34 189.162 1002.75 204.313 986.925 219.698Z" fill="#270D0D"/>
<path fill-rule="evenodd" clip-rule="evenodd" d="M1300.39 739.217L1214.93 655.754L1186.55 704.922L1275.41 757.375C1297.7 792.516 1310.78 807.699 1314.67 802.926C1317.95 798.901 1316.45 794.489 1315.06 790.426C1313.99 787.261 1312.98 784.306 1314.36 781.911C1317.52 776.44 1335.36 779.573 1352.16 783.271C1368.97 786.969 1365.08 778.705 1361.51 774.392C1345.63 761.56 1325.25 749.835 1300.39 739.217ZM796.684 860.481C805.524 842.525 835.629 667.525 835.629 667.525L898.669 667.773C898.669 667.773 840.282 856.477 835.629 868.023C829.584 883.022 839.852 904.814 846.815 919.591C847.892 921.877 848.89 923.996 849.737 925.895C840.075 930.223 835.434 924.991 830.541 919.476C825.015 913.246 819.167 906.654 805.402 913.066C800.084 915.543 795.051 918.472 790.134 921.333C773.15 931.217 757.548 940.297 736.324 927.185C732.959 925.107 729.271 917.28 738.18 911.164C760.376 895.927 792.362 869.259 796.684 860.481Z" fill="#B28B67"/>
<path fill-rule="evenodd" clip-rule="evenodd" d="M1014.78 402.69L1040.87 398.21C1085.78 510.532 1164.19 612.591 1276.09 704.387L1191.53 807.244C1079.64 676.539 1010.66 541.688 1014.78 402.69Z" fill="#814040"/>
<path fill-rule="evenodd" clip-rule="evenodd" d="M901.067 730.889H1133.35C1133.35 730.889 1052.63 534.388 1052.63 397.038L982.56 386.586C927.492 475.254 911.941 584.423 901.067 730.889Z" fill="#DDE3E9"/>
<path fill-rule="evenodd" clip-rule="evenodd" d="M795.483 830.556C820.886 543.624 981.02 386.586 981.02 386.586L981.076 386.635C981.085 386.619 981.094 386.602 981.103 386.586H985.677C993.887 386.869 1010.69 387.606 1010.69 387.606L1027.62 436.047C1030.3 524.64 1058.99 793.123 1058.99 793.123H906.949C907.207 805.433 907.78 817.917 908.701 830.556H795.483Z" fill="#762F2F"/>
<path fill-rule="evenodd" clip-rule="evenodd" d="M906.975 794.313C905.761 740.706 910.511 690.37 918.436 644.819C922.58 698.87 931.242 763.91 949.333 794.313H906.975Z" fill="black" fill-opacity="0.1"/>
<path fill-rule="evenodd" clip-rule="evenodd" d="M940.618 700.687L1015.7 665.741V700.687H940.618Z" fill="white" fill-opacity="0.2"/>
</svg>
