<svg width="2017" height="2672" viewBox="0 0 2017 2672" fill="none" xmlns="http://www.w3.org/2000/svg">
<path fill-rule="evenodd" clip-rule="evenodd" d="M1197.35 917.188C1138.37 943.812 1080.43 956.676 1053.23 951.425C985.023 938.257 978.752 751.369 1031.53 677.692C1084.3 604.015 1355.6 571.901 1369.27 717.879C1374.02 768.543 1345.62 813.758 1303.65 850.652L1378.9 1113.34H1160.33L1197.35 917.188Z" fill="#DEAF82"/>
<path fill-rule="evenodd" clip-rule="evenodd" d="M1191.29 726.121C1172.38 705.036 1154.23 688.953 1130.62 679.614C1034.53 680.751 1023.28 667.849 1023.28 624.362C1038.8 616.044 1093.56 602.037 1154.89 598.097C1186.17 591.392 1223.23 592.653 1258.93 603.838C1303.01 613.204 1340.32 633.375 1356.81 671.137C1416.44 748.222 1371.18 828.465 1310.18 855.876C1293.94 841.468 1279.77 827.504 1267.13 814.137C1277.28 806.706 1283.59 796.334 1283.59 784.859C1283.59 762.255 1259.13 743.932 1228.95 743.932C1226.73 743.932 1224.54 744.031 1222.39 744.223C1221.03 772.484 1215.45 868.096 1200.77 901.307C1183.46 940.462 1082.47 950.076 1047.25 950.076C1016.83 950.076 1017.87 928.499 1018.61 913.035C1018.72 910.808 1018.82 908.708 1018.82 906.817C1018.82 902.867 1025.68 902.877 1033.43 902.889C1043.49 902.904 1055.06 902.921 1055.06 894.272C1055.06 884.844 1037.67 877.612 1022.1 871.141C1012.39 867.104 1003.39 863.362 999.771 859.568C988.354 847.599 984.509 831.455 1001.73 831.455C1011.15 831.455 1024.06 835.52 1039.6 840.411C1063.06 847.794 1092.5 857.059 1124.89 857.059C1178.4 857.059 1191.13 727.763 1191.29 726.121Z" fill="#270D0D"/>
<path fill-rule="evenodd" clip-rule="evenodd" d="M1354 740.337C1321.42 740.337 1295 720.414 1295 695.837C1295 671.261 1321.42 651.337 1354 651.337C1386.58 651.337 1413 671.261 1413 695.837C1413 720.414 1386.58 740.337 1354 740.337Z" fill="#101030"/>
<path fill-rule="evenodd" clip-rule="evenodd" d="M1310.33 729.978C1341.1 752.406 1372.35 775.175 1415.99 775.175C1503.29 775.175 1537.97 642.987 1415.99 642.987C1305.93 642.987 1270.07 658.966 1223.13 679.874C1218.05 682.14 1212.83 684.464 1207.37 686.832C1249.19 685.429 1279.52 707.533 1310.33 729.978Z" fill="#270D0D"/>
<path fill-rule="evenodd" clip-rule="evenodd" d="M839.228 1502.42L960.601 1399.12L1000.91 1459.97L874.701 1524.89C843.055 1568.38 824.468 1587.17 818.942 1581.26C814.282 1576.28 816.418 1570.82 818.385 1565.79C819.917 1561.88 821.348 1558.22 819.383 1555.26C814.898 1548.48 789.558 1552.36 765.692 1556.94C741.826 1561.52 747.348 1551.29 752.421 1545.95C774.977 1530.07 803.913 1515.56 839.228 1502.42ZM1554.64 1652.49C1542.09 1630.27 1499.33 1413.69 1499.33 1413.69L1409.79 1414C1409.79 1414 1492.72 1647.54 1499.33 1661.83C1507.91 1680.39 1493.33 1707.36 1483.44 1725.65C1481.91 1728.48 1480.49 1731.1 1479.29 1733.45C1493.01 1738.81 1499.6 1732.33 1506.55 1725.51C1514.4 1717.8 1522.71 1709.64 1542.26 1717.57C1549.81 1720.64 1556.96 1724.26 1563.94 1727.81C1588.07 1740.04 1610.23 1751.27 1640.37 1735.05C1645.15 1732.47 1650.39 1722.79 1637.73 1715.22C1606.21 1696.36 1560.78 1663.36 1554.64 1652.49Z" fill="#B28B67"/>
<path fill-rule="evenodd" clip-rule="evenodd" d="M1251.34 981.444L1205.9 974.645C1127.67 1145.14 991.081 1300.05 796.141 1439.39L943.447 1595.51C1138.36 1397.12 1258.51 1192.43 1251.34 981.444Z" fill="#4B4E9E"/>
<path fill-rule="evenodd" clip-rule="evenodd" d="M1450 1479.44H1045C1045 1479.44 1185.74 1182.09 1185.74 974.256L1307.91 958.439C1403.93 1092.61 1431.04 1257.81 1450 1479.44Z" fill="#86A3BB"/>
<path fill-rule="evenodd" clip-rule="evenodd" d="M1633.35 1630.9C1589.09 1195.37 1310.15 957 1310.15 957L1310.05 957.075C1310.03 957.05 1310.02 957.025 1310 957H1302.03C1287.73 957.43 1258.47 958.548 1258.47 958.548L1228.98 1032.08C1224.3 1166.55 1174.32 1574.08 1174.32 1574.08H1439.18C1438.73 1592.76 1437.73 1611.71 1436.13 1630.9H1633.35Z" fill="#24226D"/>
<path fill-rule="evenodd" clip-rule="evenodd" d="M1433.99 1534.6C1435.72 1468.26 1428.97 1405.96 1417.72 1349.59C1411.83 1416.48 1399.53 1496.98 1373.83 1534.6H1433.99Z" fill="black" fill-opacity="0.1"/>
<path fill-rule="evenodd" clip-rule="evenodd" d="M1397 1357L1291 1314V1357H1397Z" fill="white" fill-opacity="0.2"/>
<path d="M456 863H900.6C906.893 863 912 858.178 912 852.213V431.5C912 193.571 707.438 0 456 0C204.562 0 0 193.571 0 431.5C0 669.429 204.562 863 456 863ZM456 21.575C694.864 21.575 889.2 205.47 889.2 431.5V841.425H456C217.136 841.425 22.8 657.53 22.8 431.5C22.8 205.47 217.136 21.575 456 21.575Z" fill="black"/>
<path d="M186.863 491.014H167.601L163.938 502H152.256L172.105 448.68H182.286L202.244 502H190.562L186.863 491.014ZM170.567 482.115H183.897L177.195 462.156L170.567 482.115ZM240.037 489.073L247.398 462.376H258.458L245.091 502H234.983L221.617 462.376H232.676L240.037 489.073ZM260.911 481.822C260.911 477.891 261.668 474.388 263.182 471.312C264.695 468.235 266.868 465.855 269.7 464.17C272.557 462.486 275.865 461.644 279.625 461.644C284.971 461.644 289.329 463.279 292.698 466.551C296.092 469.822 297.984 474.266 298.375 479.881L298.448 482.591C298.448 488.67 296.751 493.553 293.357 497.239C289.964 500.901 285.411 502.732 279.698 502.732C273.985 502.732 269.419 500.901 266.001 497.239C262.608 493.577 260.911 488.597 260.911 482.298V481.822ZM271.495 482.591C271.495 486.351 272.203 489.231 273.619 491.233C275.035 493.211 277.061 494.2 279.698 494.2C282.261 494.2 284.263 493.223 285.704 491.27C287.144 489.292 287.864 486.143 287.864 481.822C287.864 478.135 287.144 475.279 285.704 473.252C284.263 471.226 282.237 470.213 279.625 470.213C277.037 470.213 275.035 471.226 273.619 473.252C272.203 475.254 271.495 478.367 271.495 482.591ZM328.697 497.972C326.084 501.146 322.471 502.732 317.857 502.732C313.609 502.732 310.362 501.512 308.116 499.07C305.894 496.629 304.759 493.052 304.71 488.34V462.376H315.293V487.974C315.293 492.1 317.173 494.163 320.933 494.163C324.522 494.163 326.988 492.918 328.331 490.428V462.376H338.951V502H328.99L328.697 497.972ZM368.394 491.05C368.394 489.756 367.747 488.743 366.453 488.011C365.184 487.254 363.133 486.583 360.301 485.997C350.877 484.019 346.165 480.015 346.165 473.985C346.165 470.469 347.618 467.54 350.523 465.196C353.453 462.828 357.273 461.644 361.985 461.644C367.015 461.644 371.031 462.828 374.034 465.196C377.061 467.564 378.575 470.64 378.575 474.424H367.991C367.991 472.911 367.503 471.666 366.526 470.689C365.55 469.688 364.024 469.188 361.949 469.188C360.167 469.188 358.787 469.59 357.811 470.396C356.834 471.202 356.346 472.227 356.346 473.472C356.346 474.644 356.895 475.596 357.994 476.329C359.117 477.037 360.997 477.659 363.633 478.196C366.27 478.709 368.492 479.295 370.298 479.954C375.889 482.005 378.685 485.557 378.685 490.611C378.685 494.224 377.134 497.154 374.034 499.4C370.933 501.622 366.929 502.732 362.022 502.732C358.702 502.732 355.748 502.146 353.16 500.975C350.596 499.778 348.582 498.155 347.117 496.104C345.652 494.029 344.92 491.795 344.92 489.402H354.954C355.052 491.282 355.748 492.723 357.042 493.724C358.335 494.725 360.069 495.225 362.242 495.225C364.268 495.225 365.794 494.847 366.819 494.09C367.869 493.309 368.394 492.295 368.394 491.05ZM415.379 502H404.759V445.75H415.379V502ZM442.369 502.732C436.558 502.732 431.822 500.95 428.16 497.386C424.522 493.821 422.703 489.073 422.703 483.14V482.115C422.703 478.135 423.472 474.583 425.01 471.458C426.548 468.309 428.721 465.892 431.529 464.207C434.361 462.498 437.583 461.644 441.197 461.644C446.617 461.644 450.877 463.353 453.978 466.771C457.103 470.188 458.665 475.035 458.665 481.309V485.63H433.433C433.775 488.218 434.8 490.293 436.509 491.856C438.243 493.418 440.428 494.2 443.064 494.2C447.142 494.2 450.328 492.723 452.623 489.769L457.823 495.591C456.236 497.837 454.087 499.595 451.377 500.865C448.667 502.11 445.665 502.732 442.369 502.732ZM441.16 470.213C439.061 470.213 437.352 470.921 436.033 472.337C434.739 473.753 433.909 475.779 433.543 478.416H448.265V477.574C448.216 475.23 447.581 473.423 446.36 472.154C445.14 470.86 443.406 470.213 441.16 470.213ZM486.167 491.05C486.167 489.756 485.521 488.743 484.227 488.011C482.957 487.254 480.906 486.583 478.074 485.997C468.65 484.019 463.938 480.015 463.938 473.985C463.938 470.469 465.391 467.54 468.296 465.196C471.226 462.828 475.047 461.644 479.759 461.644C484.788 461.644 488.804 462.828 491.807 465.196C494.834 467.564 496.348 470.64 496.348 474.424H485.765C485.765 472.911 485.276 471.666 484.3 470.689C483.323 469.688 481.797 469.188 479.722 469.188C477.94 469.188 476.561 469.59 475.584 470.396C474.607 471.202 474.119 472.227 474.119 473.472C474.119 474.644 474.668 475.596 475.767 476.329C476.89 477.037 478.77 477.659 481.407 478.196C484.043 478.709 486.265 479.295 488.072 479.954C493.663 482.005 496.458 485.557 496.458 490.611C496.458 494.224 494.908 497.154 491.807 499.4C488.707 501.622 484.703 502.732 479.795 502.732C476.475 502.732 473.521 502.146 470.933 500.975C468.37 499.778 466.355 498.155 464.891 496.104C463.426 494.029 462.693 491.795 462.693 489.402H472.728C472.825 491.282 473.521 492.723 474.815 493.724C476.109 494.725 477.842 495.225 480.015 495.225C482.042 495.225 483.567 494.847 484.593 494.09C485.643 493.309 486.167 492.295 486.167 491.05ZM543.443 491.05C543.443 489.756 542.796 488.743 541.502 488.011C540.232 487.254 538.182 486.583 535.35 485.997C525.926 484.019 521.214 480.015 521.214 473.985C521.214 470.469 522.667 467.54 525.572 465.196C528.501 462.828 532.322 461.644 537.034 461.644C542.063 461.644 546.08 462.828 549.083 465.196C552.11 467.564 553.624 470.64 553.624 474.424H543.04C543.04 472.911 542.552 471.666 541.575 470.689C540.599 469.688 539.073 469.188 536.998 469.188C535.215 469.188 533.836 469.59 532.859 470.396C531.883 471.202 531.395 472.227 531.395 473.472C531.395 474.644 531.944 475.596 533.042 476.329C534.166 477.037 536.045 477.659 538.682 478.196C541.319 478.709 543.541 479.295 545.347 479.954C550.938 482.005 553.733 485.557 553.733 490.611C553.733 494.224 552.183 497.154 549.083 499.4C545.982 501.622 541.978 502.732 537.071 502.732C533.75 502.732 530.796 502.146 528.208 500.975C525.645 499.778 523.631 498.155 522.166 496.104C520.701 494.029 519.969 491.795 519.969 489.402H530.003C530.101 491.282 530.796 492.723 532.09 493.724C533.384 494.725 535.118 495.225 537.291 495.225C539.317 495.225 540.843 494.847 541.868 494.09C542.918 493.309 543.443 492.295 543.443 491.05ZM573.252 452.635V462.376H580.027V470.14H573.252V489.915C573.252 491.38 573.533 492.43 574.095 493.064C574.656 493.699 575.73 494.017 577.317 494.017C578.489 494.017 579.527 493.931 580.43 493.76V501.78C578.355 502.415 576.219 502.732 574.021 502.732C566.6 502.732 562.815 498.985 562.669 491.49V470.14H556.883V462.376H562.669V452.635H573.252ZM609.654 497.972C607.042 501.146 603.428 502.732 598.814 502.732C594.566 502.732 591.319 501.512 589.073 499.07C586.851 496.629 585.716 493.052 585.667 488.34V462.376H596.25V487.974C596.25 492.1 598.13 494.163 601.89 494.163C605.479 494.163 607.945 492.918 609.288 490.428V462.376H619.908V502H609.947L609.654 497.972ZM626.243 481.895C626.243 475.718 627.623 470.799 630.381 467.137C633.165 463.475 636.961 461.644 641.771 461.644C645.628 461.644 648.814 463.084 651.329 465.965V445.75H661.949V502H652.391L651.878 497.789C649.241 501.084 645.848 502.732 641.697 502.732C637.034 502.732 633.287 500.901 630.455 497.239C627.647 493.553 626.243 488.438 626.243 481.895ZM636.827 482.664C636.827 486.375 637.474 489.219 638.768 491.197C640.062 493.174 641.941 494.163 644.407 494.163C647.679 494.163 649.986 492.784 651.329 490.025V474.388C650.01 471.629 647.728 470.25 644.48 470.25C639.378 470.25 636.827 474.388 636.827 482.664ZM681.321 502H670.701V462.376H681.321V502ZM670.079 452.122C670.079 450.535 670.604 449.229 671.653 448.204C672.728 447.178 674.18 446.666 676.011 446.666C677.818 446.666 679.258 447.178 680.333 448.204C681.407 449.229 681.944 450.535 681.944 452.122C681.944 453.733 681.395 455.052 680.296 456.077C679.222 457.103 677.793 457.615 676.011 457.615C674.229 457.615 672.789 457.103 671.69 456.077C670.616 455.052 670.079 453.733 670.079 452.122ZM688.426 481.822C688.426 477.891 689.183 474.388 690.696 471.312C692.21 468.235 694.383 465.855 697.215 464.17C700.071 462.486 703.379 461.644 707.139 461.644C712.486 461.644 716.844 463.279 720.213 466.551C723.606 469.822 725.499 474.266 725.889 479.881L725.962 482.591C725.962 488.67 724.266 493.553 720.872 497.239C717.479 500.901 712.925 502.732 707.212 502.732C701.5 502.732 696.934 500.901 693.516 497.239C690.123 493.577 688.426 488.597 688.426 482.298V481.822ZM699.009 482.591C699.009 486.351 699.717 489.231 701.133 491.233C702.549 493.211 704.576 494.2 707.212 494.2C709.776 494.2 711.778 493.223 713.218 491.27C714.659 489.292 715.379 486.143 715.379 481.822C715.379 478.135 714.659 475.279 713.218 473.252C711.778 471.226 709.751 470.213 707.139 470.213C704.551 470.213 702.549 471.226 701.133 473.252C699.717 475.254 699.009 478.367 699.009 482.591ZM753.941 491.05C753.941 489.756 753.294 488.743 752 488.011C750.73 487.254 748.68 486.583 745.848 485.997C736.424 484.019 731.712 480.015 731.712 473.985C731.712 470.469 733.165 467.54 736.07 465.196C739 462.828 742.82 461.644 747.532 461.644C752.562 461.644 756.578 462.828 759.581 465.196C762.608 467.564 764.122 470.64 764.122 474.424H753.538C753.538 472.911 753.05 471.666 752.073 470.689C751.097 469.688 749.571 469.188 747.496 469.188C745.713 469.188 744.334 469.59 743.357 470.396C742.381 471.202 741.893 472.227 741.893 473.472C741.893 474.644 742.442 475.596 743.541 476.329C744.664 477.037 746.543 477.659 749.18 478.196C751.817 478.709 754.039 479.295 755.845 479.954C761.436 482.005 764.231 485.557 764.231 490.611C764.231 494.224 762.681 497.154 759.581 499.4C756.48 501.622 752.476 502.732 747.569 502.732C744.249 502.732 741.294 502.146 738.707 500.975C736.143 499.778 734.129 498.155 732.664 496.104C731.199 494.029 730.467 491.795 730.467 489.402H740.501C740.599 491.282 741.294 492.723 742.588 493.724C743.882 494.725 745.616 495.225 747.789 495.225C749.815 495.225 751.341 494.847 752.366 494.09C753.416 493.309 753.941 492.295 753.941 491.05Z" fill="black"/>
<path fill-rule="evenodd" clip-rule="evenodd" d="M1382.8 2372.29C1168.75 2372.29 995.233 2220.56 995.233 2033.39C995.233 1846.22 1168.75 1694.49 1382.8 1694.49C1596.85 1694.49 1770.37 1846.22 1770.37 2033.39C1770.37 2220.56 1596.85 2372.29 1382.8 2372.29Z" fill="#FFFBEC"/>
<path fill-rule="evenodd" clip-rule="evenodd" d="M780.254 2015.32C761.534 2075.39 714.894 2189.25 650.403 2320.01L589.121 2303.63C642.734 2002.74 687.354 1803.54 712.912 1742.92C729.799 1702.86 857.555 1707.55 842.858 1788.15C836.694 1821.95 812.309 1912.46 780.254 2015.32ZM1032.14 1802.21C1132.08 1821.18 1339.29 1888.23 1398.46 1909.65C1435.65 1923.12 1411.68 1968.79 1379.95 1964.79C1374.58 1964.11 1355.57 1962.17 1327.21 1959.26C1236.12 1949.92 1048.53 1930.7 906.251 1911.94C831.335 1902.06 871.635 1773.52 949.42 1787.12C975.589 1791.69 1003.42 1796.76 1032.14 1802.21Z" fill="#B28B67"/>
<path fill-rule="evenodd" clip-rule="evenodd" d="M708.994 1708.96C719.212 1678.42 1183.67 1570 1183.67 1570H1221.73V1602.49L901.678 1751.74C902.104 1756.56 901.843 1761.65 900.81 1767.02C903.122 1877.66 851.428 1960.32 800.247 2042.16C766.778 2095.68 733.528 2148.85 715.744 2209.26L598.157 2193.19C601.582 2185.16 606.998 2148.98 614.404 2099.51C633.076 1974.77 664.395 1765.54 708.333 1710.19C708.487 1709.99 708.643 1709.8 708.802 1709.61C708.858 1709.39 708.922 1709.18 708.994 1708.96Z" fill="#014711"/>
<path fill-rule="evenodd" clip-rule="evenodd" d="M1195.14 1840.38C1224.43 1835.01 1251.39 1830.22 1274.47 1826.51C1423.52 1802.56 1466.99 1729.47 1441.29 1570H1166.66C1121.8 1581.81 888.657 1671.37 767.693 1719.01C687.633 1750.54 712.871 1864.19 758.209 1893.77C758.455 1895.59 759.271 1896.82 760.724 1897.37C932.617 1962.64 1079.2 1957.77 1173.33 1954.64C1212.75 1953.33 1242.97 1952.33 1262 1956.91L1291.81 1870.76L1195.14 1840.38Z" fill="#014711"/>
<path fill-rule="evenodd" clip-rule="evenodd" d="M1367.23 1897.35C1367.23 1896.18 1368.29 1895.23 1369.52 1895.32C1377.2 1895.87 1401.98 1897.96 1412.26 1902.56C1424.5 1908.02 1445.99 1922.25 1445.99 1922.25C1439.06 1935.25 1321.54 2155.99 1321.54 2155.99C1321.54 2155.99 1283.8 2150.41 1291.63 2129.61C1299.46 2108.81 1304.26 2094.88 1304.26 2094.88L1309.38 1958.91C1309.4 1958.35 1309.92 1957.9 1310.51 1957.94L1336.79 1959.45C1336.79 1959.45 1355.72 1945.41 1361.77 1934.05C1366.79 1924.63 1367.23 1904.09 1367.23 1897.35Z" fill="#E4E4E4"/>
<path fill-rule="evenodd" clip-rule="evenodd" d="M673.857 2287.19C674.877 2286.73 676.078 2287.18 676.521 2288.21C679.295 2294.65 688.2 2316.14 688.2 2326.67C688.2 2339.14 683.664 2363.07 683.664 2363.07C667.87 2363.07 399.775 2363.07 399.775 2363.07C399.775 2363.07 388.709 2329.56 412.551 2326.89C436.392 2324.21 452.162 2322.06 452.162 2322.06L587.946 2266.61C588.445 2266.4 589.015 2266.63 589.236 2267.12L599.295 2289.48C599.295 2289.48 621.367 2298.91 635.166 2298.91C646.783 2298.91 667.573 2290 673.857 2287.19Z" fill="#E4E4E4"/>
</svg>
