<svg width="800" height="600" viewBox="0 0 800 600" fill="none" xmlns="http://www.w3.org/2000/svg">
<g clip-path="url(#clip0)">
<rect width="800" height="600" fill="white"/>
<rect width="1600" height="1200" fill="#E6E9F3"/>
<mask id="mask0" mask-type="alpha" maskUnits="userSpaceOnUse" x="0" y="0" width="1600" height="1200">
<rect width="1600" height="1200" fill="#E6E9F3"/>
</mask>
<g mask="url(#mask0)">
<path d="M388.25 1000.56C564.849 1162.29 816.421 1126.79 996.175 937.537C1175.93 748.283 1139.88 452.175 931.424 329.794C722.963 207.413 493.096 211.764 323.499 392.815C153.901 573.865 211.652 838.83 388.25 1000.56Z" fill="#EFF3F0"/>
<path d="M162.945 394.697C257.478 471.248 385.844 453.927 459.006 363.579C532.168 273.231 520.363 123.905 427.889 67.5181C335.415 11.1311 199.218 -10.3319 131.828 98.6354C64.4372 207.603 68.4125 318.146 162.945 394.697Z" fill="#E0436B"/>
<path d="M49.4306 113.292C69.1209 129.236 95.8643 125.621 111.111 106.794C126.357 87.9662 123.905 56.8545 104.642 45.1107C85.3799 33.3669 57.0071 28.9016 42.9623 51.6084C28.9175 74.3151 29.7403 97.3467 49.4306 113.292Z" fill="#E0436B"/>
<path d="M511.431 397.292C531.121 413.236 557.864 409.621 573.111 390.794C588.357 371.966 585.905 340.854 566.642 329.111C547.38 317.367 519.007 312.902 504.962 335.608C490.918 358.315 491.74 381.347 511.431 397.292Z" fill="#7252A4"/>
<path d="M599.47 401.588C608.42 408.835 620.576 407.192 627.506 398.634C634.436 390.076 633.322 375.934 624.566 370.596C615.81 365.258 602.914 363.229 596.53 373.55C590.146 383.871 590.52 394.34 599.47 401.588Z" fill="#7252A4"/>
<path d="M347.762 826.254C419.783 892.211 522.38 877.735 595.689 800.552C668.997 723.368 654.298 602.608 569.283 552.699C484.268 502.79 390.523 504.564 321.356 578.402C252.19 652.239 275.741 760.298 347.762 826.254Z" fill="#F0C933"/>
<path d="M127.174 496.06C136.126 504.258 148.879 502.459 157.991 492.865C167.103 483.271 165.276 468.261 154.709 462.058C144.141 455.854 132.489 456.075 123.892 465.252C115.295 474.43 118.222 487.861 127.174 496.06Z" fill="#453264"/>
<path d="M-220.854 1017.32C-119.941 1109.74 23.8148 1089.45 126.532 981.308C229.248 873.163 208.651 703.958 89.5306 634.026C-29.59 564.095 -160.942 566.581 -257.855 670.038C-354.768 773.495 -321.768 924.904 -220.854 1017.32Z" fill="#C4C8D4"/>
<path d="M1074.93 -252.317C1161.41 -182.283 1174.75 -55.399 1104.71 31.086C1034.68 117.571 942.222 211.09 884.452 303.087C826.681 395.085 679.025 413.359 601.049 332.874C523.072 252.389 493.162 145.916 571.262 49.471C649.361 -46.974 714.781 -127.761 791.524 -222.53C868.267 -317.299 988.442 -322.351 1074.93 -252.317Z" fill="#6759AE"/>
</g>
</g>
<defs>
<clipPath id="clip0">
<rect width="800" height="600" fill="white"/>
</clipPath>
</defs>
</svg>
